Coordinates
version=1
nRows=14
nColumns=42
inDegrees=yes

Units are S.I. units (second, meters, Newtons, ...)
If the header above contains a line with 'inDegrees', this indicates whether rotational values are in degrees (yes) or radians (no).

endheader
time	pelvis_tilt	pelvis_list	pelvis_rotation	pelvis_tx	pelvis_ty	pelvis_tz	hip_flexion_r	hip_adduction_r	hip_rotation_r	knee_angle_r	knee_angle_r_beta	ankle_angle_r	subtalar_angle_r	mtp_angle_r	hip_flexion_l	hip_adduction_l	hip_rotation_l	knee_angle_l	knee_angle_l_beta	ankle_angle_l	subtalar_angle_l	mtp_angle_l	lumbar_extension	lumbar_bending	lumbar_rotation	sh_tx_r	sh_ty_r	sh_tz_r	sh_plane_elev_r	sh_elev_r	sh_axial_rot_r	elbow_flex_r	pro_sup_r	sh_tx_l	sh_ty_l	sh_tz_l	sh_plane_elev_l	sh_elev_l	sh_axial_rot_l	elbow_flex_l	pro_sup_l
      3.00000000	     -5.58734551	      0.12677406	      0.53345739	      0.32480619	      0.93191950	     -0.05566714	      2.33268160	     -5.79708877	      0.53221721	      1.24625228	      0.02175121	      1.44660194	      1.31418579	     -7.49999987	      2.46579091	     -0.24926639	     -1.02691505	      1.03387347	      0.01804450	      9.16515021	     -4.90515270	     -7.49999987	      4.01806395	     -3.64859255	     -8.15495545	      0.01149882	      0.00724128	     -0.00434061	     70.78499633	    176.21152205	     -3.07137539	     13.87967145	     45.61243804	     -0.00940117	     -0.00945297	     -0.00448007	     33.19302943	      7.40976883	     -2.06993425	     18.37764359	     47.01997958
      3.01694910	     -5.63953992	      0.14650524	      0.50677691	      0.32479881	      0.93176237	     -0.05573245	      2.39802826	     -5.81913266	      0.56704749	      1.26233662	      0.02203193	      1.52818519	      1.46805293	     -7.49999987	      2.54738900	     -0.23566044	     -1.20386407	      1.02963054	      0.01797044	      9.23280351	     -4.69074388	     -7.49999987	      3.99724027	     -3.54789282	     -8.57986835	      0.01231132	      0.00755653	     -0.00436824	     72.72458332	    176.01233443	     -1.73952635	     14.17303845	     44.61988789	     -0.01140920	     -0.01005461	     -0.00451362	     33.54163095	      7.50340871	     -2.57235776	     18.49577576	     46.58188579
      3.03389830	     -5.70579923	      0.14152729	      0.49635331	      0.32478917	      0.93189494	     -0.05558803	      2.46320632	     -5.80904829	      0.66313281	      1.23530420	      0.02156013	      1.47781471	      1.49217569	     -7.49999987	      2.61301394	     -0.25375921	     -1.22691994	      0.98865561	      0.01725530	      9.25825302	     -4.58141894	     -7.49999987	      4.23479650	     -3.66224121	     -7.94217161	      0.01096580	      0.00669021	     -0.00430164	     69.18030851	    175.86261369	     -3.09386836	     13.50850003	     45.20448466	     -0.00883711	     -0.00986557	     -0.00458392	     32.83110729	      7.36554022	     -0.88107957	     18.38021923	     47.18076075
      3.05084750	     -5.79247785	      0.13957225	      0.46805843	      0.32438936	      0.93156428	     -0.05560499	      2.81020407	     -5.80303500	      0.50552488	      1.74093469	      0.03038504	      1.83156310	      1.80383822	     -7.49999987	      2.96157757	     -0.25998019	     -1.31869141	      1.48965950	      0.02599946	      9.51249812	     -4.58744623	     -7.49999987	      4.42039849	     -3.54002854	     -7.15935495	      0.00712648	      0.00729379	     -0.00458933	     66.66466760	    175.68194584	     -4.57803590	     14.48964648	     45.66391888	     -0.00603575	     -0.00840091	     -0.00485257	     32.30175222	      7.39611153	      0.20712059	     18.63550013	     47.98750220
      3.06779660	     -5.69123917	      0.10844712	      0.46896520	      0.32485747	      0.93196367	     -0.05549228	      2.43288450	     -5.74405215	      0.88234284	      1.20633771	      0.02105456	      1.49994284	      1.46211956	     -7.49999987	      2.57330142	     -0.25996009	     -1.04677649	      0.97287889	      0.01697994	      9.09632676	     -4.97775594	     -7.49999987	      4.26663899	     -3.58034000	     -8.44282120	      0.01207517	      0.00514039	     -0.00437378	     67.08775391	    175.52492091	     -4.00145171	     13.39357478	     44.01603451	     -0.01005309	     -0.01013925	     -0.00452890	     31.99071266	      7.28158626	     -1.93019065	     18.57839919	     47.26460533
      3.08474580	     -5.68260693	      0.09656120	      0.48399320	      0.32481623	      0.93188185	     -0.05553435	      2.42327632	     -5.72789000	      0.77890692	      1.20376872	      0.02100973	      1.56082995	      1.83640001	     -7.49999987	      2.57104913	     -0.26551051	     -1.03692781	      1.00601326	      0.01755824	      9.05528881	     -4.99183123	     -7.49999987	      4.23003542	     -3.56212858	     -8.70260714	      0.01267650	      0.00403375	     -0.00433758	     67.82578726	    175.16737005	     -2.78646211	     12.61185554	     41.40063506	     -0.01129318	     -0.01056703	     -0.00447713	     32.68398409	      7.37782197	     -2.19214070	     18.40075464	     46.93786605
      3.10169490	     -5.65164522	      0.10686534	      0.41966272	      0.32487590	      0.93216543	     -0.05535438	      2.40146968	     -5.73529186	      0.88397991	      1.18464219	      0.02067591	      1.53658550	      1.95847608	     -7.49999987	      2.52635358	     -0.23894534	     -1.13774690	      1.02289464	      0.01785288	      9.04819255	     -5.01639306	     -7.49999987	      4.32038286	     -3.50666099	     -8.30880274	      0.01193079	      0.00352165	     -0.00426907	     66.90447238	    174.98402062	     -3.36218425	     12.47771126	     41.34537785	     -0.00993999	     -0.01108394	     -0.00439341	     32.99813894	      7.31405236	     -1.62632290	     18.17536270	     46.91869983
      3.11864410	     -5.72083048	      0.16610206	      0.39489020	      0.32492121	      0.93510301	     -0.05523453	      2.47857585	     -5.79600223	      0.94508067	      1.18509277	      0.02068377	      1.41511451	      1.99170888	     -7.49999987	      2.60870106	     -0.16336034	     -1.12345037	      1.05585875	      0.01842821	      8.83787955	     -5.22621836	     -7.49999987	      4.55793168	     -3.74911197	     -8.06084506	      0.01124130	      0.00182193	     -0.00416854	     62.79607344	    174.76662649	     -5.53737434	     11.39103429	     42.13652394	     -0.00852020	     -0.01105836	     -0.00448403	     31.67846405	      7.13637393	     -0.09347114	     17.79118642	     47.80437685
      3.13559320	     -5.72867960	      0.16410975	      0.44277039	      0.32488428	      0.93198334	     -0.05519989	      2.47872240	     -5.79357493	      0.91238137	      1.14705755	      0.02001993	      1.36040502	      2.06869984	     -7.49999987	      2.64396486	     -0.14420322	     -0.93696430	      1.09367209	      0.01908818	      8.68626298	     -5.57896144	     -7.49999987	      4.42499216	     -3.74612643	     -8.75891501	      0.01266018	      0.00128995	     -0.00430133	     62.39970927	    174.68921280	     -2.84825588	      9.51705528	     37.56580744	     -0.01140028	     -0.01106361	     -0.00443563	     31.84173707	      7.23578719	     -1.96901400	     18.12009091	     47.24323391
      3.15254240	     -5.73910432	      0.19365575	      0.38217390	      0.32484731	      0.93485700	     -0.05506481	      2.51780549	     -5.81320604	      1.00727705	      1.15288588	      0.02012165	      1.27278719	      2.07521396	     -7.49999987	      2.64690983	     -0.11841410	     -0.92484384	      1.08368368	      0.01891385	      8.58665830	     -5.68497095	     -7.49999987	      4.44920717	     -3.93587779	     -8.66595156	      0.01237533	     -0.00019647	     -0.00432089	     58.50094196	    174.37126092	     -2.66136425	      7.47971637	     34.08931120	     -0.01101086	     -0.01094138	     -0.00446726	     31.60389618	      7.18698078	     -1.80427690	     17.93629177	     47.35236714
      3.16949150	     -5.88315670	      0.21850132	      0.33334555	      0.32421072	      0.93446626	     -0.05487665	      2.99031703	     -5.83914103	      1.04100933	      1.67300898	      0.02919952	      1.52417327	      2.08016446	     -7.49999987	      3.09524385	     -0.12979292	     -0.85698507	      1.61603250	      0.02820509	      8.75094814	     -5.79212950	     -7.49999987	      4.59422412	     -3.95933801	     -8.61069051	      0.00893362	      0.00082237	     -0.00462758	     56.11346970	    173.56157916	     -2.93388524	      6.75225696	     34.92277047	     -0.01052754	     -0.00916721	     -0.00473015	     31.38713170	      7.23839542	     -1.85990254	     18.01109140	     47.86183580
      3.18644070	     -5.70363845	      0.20678497	      0.31895118	      0.32467264	      0.93451350	     -0.05484738	      2.52779595	     -5.80753784	      1.05667780	      1.14453951	      0.01997598	      1.33386249	      2.36600206	     -7.49999987	      2.61065433	     -0.12307537	     -0.65566644	      1.06719377	      0.01862605	      8.39895619	     -6.02627019	     -7.49999987	      4.37148805	     -4.46220879	     -8.90673590	      0.01082311	     -0.00253524	     -0.00462277	     48.03172737	    172.33550853	     -3.34061680	      4.53773765	     28.36527128	     -0.01057865	     -0.01001647	     -0.00465101	     29.97671799	      7.00889478	     -2.18749255	     17.82684612	     47.59201842
      3.20338980	     -5.82492817	      0.25581328	      0.29332847	      0.32410135	      0.93426044	     -0.05457165	      2.93880128	     -5.83996504	      1.10590537	      1.66050629	      0.02898130	      1.55201666	      2.20305415	     -7.49999987	      3.01198941	     -0.10272421	     -0.57444208	      1.60935032	      0.02808846	      8.64246204	     -6.15113910	     -7.49999987	      4.50530580	     -4.85929818	     -7.92357775	      0.00621484	     -0.00298933	     -0.00487571	     39.65268069	    171.06756564	     -6.61862814	      5.44261296	     27.36954580	     -0.00758995	     -0.00753906	     -0.00497911	     30.68663790	      7.26973568	     -2.26672953	     17.93769514	     49.57735228
      3.22033900	     -5.63018300	      0.24481830	      0.32702536	      0.32454976	      0.93432363	     -0.05455978	      2.41454461	     -5.80460080	      1.13847748	      1.11962260	      0.01954110	      1.33355161	      2.24489465	     -7.49999987	      2.52021141	     -0.10907454	     -0.35527676	      1.10038979	      0.01920542	      8.36767172	     -6.26688090	     -7.49999987	      4.10161127	     -5.01475819	     -8.12207445	      0.00721039	     -0.00544465	     -0.00499365	     36.77713512	    169.98461188	     -5.27030083	      3.67159024	     22.84812388	     -0.00872795	     -0.00895227	     -0.00499268	     30.80954665	      7.31071419	     -1.89536261	     17.83598513	     48.18063950
